# xmcd CD Database Entry
#
# Track frame offsets:
# 150
# 16891
# 43775
# 67136
# 95851
# 119766
# 139920
# 159913
# 183252
# 206145
# 226156
# 247401
# 271679
# 296631
# 319163
# 344321
#
# Disc length: 4768 seconds
#
# Revision: 1
# Processed by: cddbd v1.4PL0 Copyright (c) Steve Scherf et al.
# Submitted via: tcd 2.0b
#
DISCID=fa129e10
DTITLE=Aerosmith - Mixed
DYEAR=1900
DGENRE=
TTITLE0=Walk This Way
TTITLE1=Amazin'
TTITLE2=Sweet Emotion
TTITLE3=Livin' On the Edge
TTITLE4=Crazy
TTITLE5=Dream On
TTITLE6=Ragdoll
TTITLE7=Cryin'
TTITLE8=Angel
TTITLE9=Dude Looks Like a Lady
TTITLE10=Back in the Saddle
TTITLE11=Love in an Elevator
TTITLE12=Janie Got a Gun
TTITLE13=Fly Away
TTITLE14=Train Kept a Rollin'
TTITLE15=Theme - Spiderman (2002)
EXTD=
EXTT0=
EXTT1=
EXTT2=
EXTT3=
EXTT4=
EXTT5=
EXTT6=
EXTT7=
EXTT8=
EXTT9=
EXTT10=
EXTT11=
EXTT12=
EXTT13=
EXTT14=
EXTT15=
PLAYORDER=
